# xmcd CD database file
#
# Track frame offsets:
#	150
#	17275
#	45570
#	74059
#	96645
#	116526
#	144812
#	165182
#	188755
#	206945
#	238243
#	266048
#	300168
#	322672
#
# Disc length: 4584 seconds
#
# Revision: 1
# Processed by: cddbd v1.5.2PL0 Copyright (c) Steve Scherf et al.
# Submitted via: CDex 1.70beta3
#
DISCID=b811e60e
DTITLE=Sonny Clark - Sonny Clark Trio (Time)
DYEAR=1960
DGENRE=Jazz
TTITLE0=Minor Meeting (take 8)
TTITLE1=Nika (take 5)
TTITLE2=Sonny's Clip
TTITLE3=Blues Mambo
TTITLE4=Blues Blue (take 13)
TTITLE5=Junka (take 3)
TTITLE6=My Conception
TTITLE7=Sonia (take 1)
TTITLE8=Minor Meeting (take 10)
TTITLE9=Nica (take 2)
TTITLE10=Nica (take 4)
TTITLE11=Blues Blue (take 1)
TTITLE12=Junka (take 1)
TTITLE13=Sonia (take 3)
EXTD=YEAR: 1960
EXTT0=
EXTT1=
EXTT2=
EXTT3=
EXTT4=
EXTT5=
EXTT6=
EXTT7=
EXTT8=
EXTT9=
EXTT10=
EXTT11=
EXTT12=
EXTT13=
PLAYORDER=
